<?xml version="1.0" encoding="utf-8"?>
<!-- Generator: Adobe Illustrator 21.1.0, SVG Export Plug-In . SVG Version: 6.00 Build 0)  -->
<svg version="1.1" xmlns="http://www.w3.org/2000/svg" xmlns:xlink="http://www.w3.org/1999/xlink" x="0px" y="0px"
	 viewBox="0 0 40 40" style="enable-background:new 0 0 40 40;" xml:space="preserve">
<style type="text/css">
	.st0{fill:#424343;}
	.st1{fill:url(#SVGID_1_);}
</style>
<g>
	<g>
		<path class="st0" d="M18.084,30.946c0.011,0.016,0.03,0.027,0.051,0.027c0.008,0,0.016-0.002,0.023-0.005l1.854-0.785l1.854,0.785
			c0.007,0.003,0.015,0.005,0.023,0.005c0.021,0,0.04-0.011,0.051-0.027c0.001-0.002,0.002-0.004,0.003-0.006
			c0.001-0.002,0.002-0.003,0.002-0.005c0.003-0.008,0.005-0.016,0.005-0.025v0v0c0-0.019-0.008-0.035-0.02-0.047l-1.447-1.361
			c-0.058-0.053-0.205-0.163-0.472-0.163c-0.267,0-0.414,0.11-0.472,0.163l-1.446,1.361c-0.013,0.012-0.021,0.028-0.021,0.047v0v0
			c0,0.009,0.002,0.017,0.005,0.025c0.001,0.002,0.002,0.003,0.003,0.005C18.082,30.943,18.083,30.944,18.084,30.946z"/>
		<path class="st0" d="M22.126,32.547H21.86c-0.31,0-0.443,0.119-0.443,0.396v0.098c0,0.093,0,0.267,0,0.313
			c-0.206-0.396-0.88-0.788-1.524-0.806c-2.557-0.069-2.46,1.668-2.46,1.668v2.656c0,0-0.097,1.73,2.46,1.668
			c0.644-0.016,1.318-0.409,1.524-0.805c0,0.046,0,0.167,0,0.259v0.152c0,0.277,0.132,0.396,0.443,0.396h0.266
			c0.309,0,0.443-0.119,0.443-0.396v-5.204C22.569,32.666,22.435,32.547,22.126,32.547z M21.305,36.477
			c0,0.805-0.753,1.201-1.49,1.201c-1.319,0-1.342-0.805-1.342-0.805v-2.656c0,0,0.019-0.805,1.342-0.805
			c0.737,0,1.49,0.396,1.49,1.201V36.477z"/>
		<path class="st0" d="M13.594,32.546h-0.49c-0.135,0-0.258,0.122-0.258,0.258v3.93c0,0.889-0.523,0.802-0.523,0.802
			c-0.433,0-0.503-0.394-0.503-0.815v-3.156c0-0.136-0.122-0.258-0.258-0.258h-0.49c-0.148,0-0.258,0.122-0.258,0.258v3.156
			c0,0.421-0.102,0.815-0.584,0.815c-0.573,0-0.509-0.802-0.509-0.802v-3.93c0-0.136-0.123-0.258-0.258-0.258h-0.49
			c-0.15,0-0.258,0.122-0.258,0.258v3.93c0,0-0.16,1.807,1.244,1.807c0.978,0,1.045-0.625,1.331-0.625
			c0.299,0,0.367,0.625,1.303,0.625c0,0,1.257,0,1.257-1.807v-3.93C13.852,32.669,13.73,32.546,13.594,32.546z"/>
		<path class="st0" d="M4.694,32.547H4.427c-0.311,0-0.443,0.119-0.443,0.396v0.152c0,0.093,0,0.213,0,0.259
			c-0.206-0.396-0.88-0.788-1.524-0.806C-0.097,32.479,0,34.217,0,34.217v2.656c0,0-0.097,1.73,2.46,1.668
			c0.644-0.016,1.318-0.409,1.524-0.805c0,0.046,0,0.167,0,0.259v0.15c0,0.277,0.132,0.396,0.443,0.396h0.266
			c0.309,0,0.443-0.119,0.443-0.396v-5.203C5.136,32.666,5.002,32.547,4.694,32.547z M3.873,36.477c0,0.805-0.753,1.201-1.49,1.201
			c-1.319,0-1.342-0.805-1.342-0.805v-2.656c0,0,0.019-0.805,1.342-0.805c0.737,0,1.49,0.396,1.49,1.201V36.477z"/>
		<path class="st0" d="M38.112,32.546h-1.359c-1.888,0-1.888,1.888-1.888,1.888v2.188c0,0,0,1.888,1.888,1.888h1.359
			C40,38.511,40,36.623,40,36.623v-2.188C40,34.435,40,32.546,38.112,32.546z M38.94,36.623c0,0,0,0.829-0.828,0.829h-1.359
			c-0.828,0-0.828-0.829-0.828-0.829v-2.188c0,0,0-0.828,0.828-0.828h1.359c0.828,0,0.828,0.828,0.828,0.828V36.623z"/>
		<path class="st0" d="M30.877,32.547h-1.16h-1.888h-1.272c-0.286,0-0.408,0.122-0.408,0.408v0.204c0,0.285,0.122,0.408,0.408,0.408
			h1.272c0.286,0,0.408,0.122,0.408,0.407v2.749v1.382c0,0.286,0.122,0.408,0.408,0.408h0.244c0.286,0,0.408-0.122,0.408-0.408
			l0.001-1.409v-2.721c0-0.285,0.122-0.407,0.408-0.407h1.173c0.285,0,0.407-0.122,0.407-0.408v-0.204
			C31.284,32.669,31.161,32.547,30.877,32.547z"/>
	</g>
	<linearGradient id="SVGID_1_" gradientUnits="userSpaceOnUse" x1="20.0117" y1="25.4978" x2="20.0117" y2="1.4566">
		<stop  offset="0" style="stop-color:#8854A1"/>
		<stop  offset="1" style="stop-color:#F2C779"/>
	</linearGradient>
	<path class="st1" d="M34.413,23.835c0.02-0.044,0.036-0.089,0.053-0.135c0.044-0.114,0.08-0.23,0.109-0.35
		c0.012-0.048,0.024-0.096,0.033-0.145c0.03-0.166,0.051-0.335,0.051-0.51c0-0.175-0.021-0.344-0.051-0.51
		c-0.009-0.049-0.022-0.096-0.033-0.145c-0.029-0.12-0.065-0.237-0.109-0.351c-0.017-0.045-0.033-0.09-0.053-0.135
		c-0.067-0.149-0.142-0.294-0.232-0.428c-0.09-0.133-0.195-0.255-0.306-0.371c-0.024-0.025-0.046-0.049-0.071-0.073
		c-0.112-0.109-0.232-0.209-0.361-0.298c-0.022-0.015-0.045-0.027-0.067-0.042c-0.121-0.078-0.248-0.147-0.38-0.206
		c-0.024-0.011-0.047-0.023-0.072-0.034c-0.146-0.06-0.299-0.107-0.457-0.142c-0.035-0.008-0.069-0.014-0.104-0.02
		c-0.165-0.03-0.332-0.051-0.506-0.051c-0.089,0-0.173,0.018-0.259,0.026c-1.571-1.701-2.378-2.896-3.304-4.94
		c0.277-0.435,0.443-0.948,0.443-1.501c0,0,0-0.001,0-0.002c0-0.174-0.021-0.342-0.051-0.507c-0.009-0.05-0.022-0.097-0.034-0.146
		c-0.029-0.12-0.065-0.236-0.108-0.349c-0.018-0.046-0.034-0.092-0.054-0.136c-0.066-0.148-0.141-0.292-0.231-0.426
		c-0.001-0.001-0.001-0.002-0.002-0.002c-0.09-0.134-0.195-0.256-0.307-0.372c-0.033-0.035-0.069-0.066-0.104-0.099
		c-0.087-0.081-0.178-0.157-0.275-0.227c-0.039-0.028-0.077-0.057-0.118-0.084c-0.136-0.088-0.277-0.168-0.428-0.232
		c-0.168-0.071-0.344-0.126-0.527-0.164c-0.183-0.037-0.371-0.057-0.565-0.057c-0.089,0-0.173,0.018-0.259,0.026
		C24.103,9,23.297,7.805,22.371,5.76c0.025-0.039,0.043-0.082,0.066-0.122c0.043-0.075,0.087-0.148,0.123-0.227l0,0
		c0.043-0.096,0.074-0.196,0.106-0.297c0.02-0.062,0.042-0.123,0.058-0.187v0c0.024-0.096,0.038-0.195,0.051-0.295
		c0.018-0.122,0.038-0.245,0.038-0.372c0-0.193-0.02-0.382-0.057-0.565c-0.037-0.182-0.092-0.358-0.163-0.526
		c-0.071-0.168-0.158-0.327-0.258-0.476c-0.201-0.298-0.459-0.556-0.757-0.757c-0.149-0.101-0.308-0.188-0.476-0.258
		c-0.335-0.142-0.704-0.22-1.091-0.22l0,0l0,0c-0.173,0-0.341,0.021-0.506,0.051c-0.035,0.006-0.07,0.012-0.104,0.02
		c-0.158,0.035-0.311,0.082-0.457,0.142c-0.025,0.01-0.048,0.023-0.072,0.034c-0.133,0.059-0.26,0.128-0.38,0.206
		c-0.022,0.014-0.045,0.026-0.066,0.041c-0.129,0.089-0.249,0.189-0.361,0.298c-0.024,0.024-0.047,0.048-0.071,0.073
		c-0.111,0.116-0.216,0.237-0.306,0.371c-0.091,0.134-0.165,0.278-0.232,0.428c-0.02,0.044-0.036,0.09-0.053,0.135
		c-0.044,0.114-0.08,0.23-0.109,0.35C17.282,3.653,17.27,3.7,17.26,3.75c-0.03,0.166-0.051,0.335-0.051,0.51
		c0,0.169,0.02,0.333,0.05,0.494v0c0.01,0.059,0.025,0.115,0.039,0.172l0,0.001c0.013,0.05,0.03,0.099,0.046,0.148
		c0.064,0.209,0.149,0.407,0.258,0.592c0.018,0.031,0.032,0.064,0.051,0.094c-0.925,2.045-1.732,3.24-3.303,4.94
		c-0.087-0.008-0.171-0.026-0.26-0.026l0,0l0,0c-0.387,0-0.756,0.078-1.091,0.22c-0.168,0.071-0.327,0.158-0.476,0.258
		c-0.298,0.201-0.556,0.459-0.757,0.757c-0.101,0.149-0.187,0.308-0.258,0.476c-0.142,0.335-0.22,0.704-0.22,1.091
		c0,0.169,0.02,0.333,0.05,0.494l0,0.001c0.01,0.059,0.025,0.115,0.039,0.173l0,0c0.023,0.09,0.051,0.177,0.082,0.263
		c0.052,0.148,0.117,0.288,0.193,0.424c0.025,0.044,0.046,0.092,0.073,0.135c0.001,0.002,0.002,0.004,0.004,0.007
		c0.001,0.002,0.002,0.004,0.003,0.006c-0.926,2.045-1.732,3.24-3.303,4.94c-0.055-0.005-0.109-0.01-0.164-0.017
		c-0.027-0.001-0.053-0.006-0.08-0.008c-0.006,0-0.01-0.002-0.016-0.002l0,0l0,0c-0.175,0-0.344,0.021-0.509,0.051
		c-0.049,0.009-0.097,0.022-0.145,0.033c-0.12,0.029-0.237,0.065-0.35,0.109c-0.045,0.017-0.091,0.033-0.135,0.053
		c-0.149,0.067-0.294,0.142-0.428,0.232c-0.149,0.101-0.288,0.215-0.415,0.342c-0.127,0.127-0.242,0.266-0.342,0.415
		c-0.302,0.447-0.479,0.987-0.479,1.567s0.176,1.12,0.479,1.567c0.101,0.149,0.215,0.288,0.342,0.415
		c0.127,0.127,0.266,0.242,0.415,0.342c0.134,0.091,0.279,0.165,0.428,0.232c0.044,0.02,0.089,0.036,0.135,0.053
		c0.114,0.044,0.23,0.08,0.35,0.109c0.048,0.012,0.096,0.024,0.145,0.033c0.166,0.031,0.335,0.051,0.509,0.051h0
		c0.171,0,0.336-0.021,0.498-0.05h0c0.049-0.009,0.097-0.02,0.146-0.031l0,0c0.117-0.028,0.231-0.064,0.342-0.106l0,0
		c0.051-0.019,0.103-0.036,0.153-0.059l0,0c0.117-0.053,0.23-0.115,0.338-0.184l0,0c0.093-0.058,0.178-0.124,0.263-0.191
		c0.021-0.017,0.043-0.034,0.063-0.052l0,0c0.133-0.113,0.254-0.236,0.363-0.372c0,0,0.001-0.001,0.001-0.001
		c0.11-0.136,0.206-0.28,0.29-0.435c2.716-0.474,4.213-0.473,6.933,0.004c0.083,0.154,0.18,0.298,0.289,0.433l0.001,0.001
		c0.113,0.139,0.237,0.265,0.374,0.38c0.029,0.025,0.058,0.049,0.088,0.072l0,0c0.096,0.074,0.196,0.141,0.302,0.202
		c0.082,0.049,0.165,0.097,0.253,0.137l0,0c0.053,0.024,0.107,0.043,0.161,0.063l0,0c0.111,0.043,0.225,0.078,0.343,0.106l0,0
		c0.048,0.011,0.096,0.022,0.146,0.031l0,0c0.162,0.03,0.327,0.05,0.498,0.05c0.171,0,0.336-0.021,0.498-0.05l0,0
		c0.111-0.02,0.216-0.053,0.323-0.086c0.055-0.017,0.112-0.031,0.165-0.051l0,0c0.056-0.021,0.112-0.041,0.166-0.066h0
		c0.112-0.052,0.221-0.11,0.324-0.176l0,0c0.079-0.049,0.153-0.105,0.227-0.162l0,0c0.034-0.026,0.066-0.053,0.098-0.081l0,0
		c0.133-0.113,0.254-0.236,0.363-0.371l0,0c0.11-0.135,0.206-0.279,0.29-0.434l0,0c2.719-0.478,4.217-0.478,6.932-0.004l0,0.001l0,0
		c0.083,0.154,0.179,0.299,0.289,0.434l0.001,0.001c0.11,0.136,0.231,0.259,0.364,0.372c0,0,0,0,0,0
		c0.011,0.009,0.022,0.018,0.032,0.027c0.109,0.09,0.222,0.172,0.344,0.244c0.093,0.056,0.187,0.11,0.287,0.156l0,0
		c0.085,0.038,0.175,0.064,0.264,0.094c0.077,0.026,0.152,0.053,0.232,0.072l0,0c0.049,0.011,0.097,0.022,0.146,0.031l0,0
		c0.162,0.03,0.327,0.05,0.498,0.05c0.173,0,0.341-0.021,0.506-0.051c0.035-0.006,0.07-0.012,0.104-0.02
		c0.158-0.035,0.311-0.082,0.457-0.142c0.025-0.01,0.048-0.023,0.072-0.034c0.133-0.059,0.259-0.128,0.38-0.206
		c0.022-0.014,0.045-0.027,0.067-0.042c0.129-0.089,0.249-0.189,0.361-0.298c0.024-0.024,0.047-0.048,0.071-0.073
		c0.111-0.116,0.216-0.237,0.306-0.371C34.271,24.128,34.346,23.984,34.413,23.835z M19.74,7.034
		c0.091,0.009,0.179,0.027,0.272,0.027l0,0l0,0c0.012,0,0.022-0.003,0.034-0.003c0.018-0.002,0.036-0.005,0.055-0.006
		c0.061-0.006,0.122-0.012,0.184-0.018c1.533,1.68,2.318,2.894,3.256,5.006l0,0c-0.118,0.197-0.21,0.409-0.277,0.634
		c-0.014,0.044-0.029,0.087-0.041,0.132l0,0c-0.015,0.063-0.03,0.125-0.041,0.19v0c-0.029,0.157-0.049,0.316-0.049,0.481
		c0,0.169,0.02,0.333,0.05,0.494l0,0c0.01,0.059,0.025,0.116,0.039,0.173l0,0c0.001,0.006,0.004,0.011,0.005,0.017
		c0.041,0.162,0.092,0.318,0.159,0.467l0,0c0.03,0.066,0.068,0.127,0.103,0.19c0.029,0.053,0.054,0.109,0.087,0.16
		c-0.926,2.045-1.732,3.24-3.303,4.941c-0.087-0.008-0.171-0.026-0.259-0.026c-0.089,0-0.173,0.018-0.259,0.026
		c-1.571-1.701-2.378-2.896-3.303-4.941c0.001-0.002,0.002-0.005,0.004-0.007c0.001-0.002,0.003-0.005,0.004-0.007
		c0.067-0.107,0.129-0.219,0.182-0.335l0,0c0.03-0.065,0.052-0.133,0.077-0.201l0,0c0.007-0.02,0.012-0.041,0.019-0.062
		c0.094-0.281,0.157-0.576,0.157-0.889c0-0.11-0.02-0.215-0.032-0.322c-0.007-0.052-0.007-0.107-0.016-0.159v0
		c-0.011-0.065-0.026-0.127-0.041-0.19l0,0c-0.013-0.05-0.03-0.098-0.046-0.147c-0.067-0.219-0.157-0.426-0.272-0.618l0-0.001
		C17.421,9.928,18.207,8.714,19.74,7.034z M10.625,21.375c-0.001-0.001-0.002-0.003-0.002-0.004c-0.005-0.01-0.011-0.02-0.016-0.03
		c-0.015-0.028-0.029-0.056-0.045-0.083c0.938-2.112,1.724-3.326,3.256-5.006c0.061,0.006,0.122,0.012,0.184,0.018
		c0.019,0.001,0.037,0.003,0.055,0.006c0.012,0,0.022,0.003,0.034,0.003l0,0l0,0c0.005,0,0.01-0.001,0.016-0.002
		c0.088-0.001,0.171-0.017,0.257-0.026c1.532,1.68,2.318,2.894,3.256,5.006c-0.022,0.037-0.041,0.075-0.061,0.113
		C14.837,21.848,13.34,21.85,10.625,21.375z M22.467,21.371c-0.018-0.034-0.035-0.068-0.055-0.101
		c-0.002-0.004-0.004-0.008-0.006-0.011c0.937-2.112,1.723-3.326,3.255-5.006c0.091,0.009,0.179,0.027,0.273,0.027
		c0.093,0,0.181-0.019,0.272-0.027c1.533,1.68,2.318,2.894,3.256,5.006c-0.023,0.038-0.042,0.078-0.063,0.117
		C26.683,21.85,25.186,21.848,22.467,21.371z"/>
</g>
</svg>
