<svg version="1" xmlns="http://www.w3.org/2000/svg" width="133.333" height="133.333" viewBox="0 0 100.000000 100.000000"><path d="M27.5 13.7c-3.9 1-7.4 4.4-8.5 8.1-.5 2-1 7.4-1 11.9 0 7.6-.2 8.3-2.6 10.2-1.5 1.2-4 2.1-5.5 2.1-2.7 0-2.9.3-2.9 3.9s.3 4 3.2 4.6C17.3 56 18 57.1 18 67.1 18 83 21.6 87 35.8 87H44v-8h-5.6c-8.7 0-9.4-.7-9.4-9.9 0-10.2-.7-13.6-3.6-16.5-2.2-2.2-2.3-2.5-.8-3.7 3.1-2.5 4.4-7.6 4.4-16.8 0-10.2-.1-10.1 9.1-10.1H44v-9l-7.2.1c-4 .1-8.2.4-9.3.6zM56 17.5V22h7c8.6 0 9 .6 9 12.5 0 8.6 1.5 13.8 4.2 14.7.9.3.4 1.5-1.5 3.7-2.5 3-2.7 3.9-2.7 12.7 0 12-1.1 13.4-10 13.4h-6v8.2l9.5-.4c9.2-.3 9.6-.4 12.7-3.6 3.2-3.2 3.3-3.5 3.8-14 .3-5.9.9-11.3 1.3-12 .5-.6 2.8-1.7 5.3-2.3 4.2-1.1 4.4-1.3 4.4-4.9 0-3.5-.2-3.8-3.6-4.3C82.9 44.6 82 43 82 32c0-8.4-.3-10.1-2.3-13.1-2.8-4.3-7.1-5.8-16.4-5.8L56 13v4.5z"/></svg>